<?xml version="1.0" encoding="utf-8"?>
<!-- Generator: Adobe Illustrator 26.0.1, SVG Export Plug-In . SVG Version: 6.00 Build 0)  -->
<svg version="1.1" id="Layer_1" xmlns="http://www.w3.org/2000/svg" xmlns:xlink="http://www.w3.org/1999/xlink" x="0px" y="0px"
	 viewBox="0 0 612 792" style="enable-background:new 0 0 612 792;" xml:space="preserve">
<style type="text/css">
	.st0{fill:#ED1C24;}
	.st1{display:none;fill:#ED1C24;}
	.st2{fill:#414042;}
</style>
<g>
	<g>
		<path class="st0" d="M329.9,310.9c4,2.2,7.9,4.3,11.8,6.5c5.7,3.3,11.4,6.6,17,10.1c0.9,0.6,1.7,2.5,1.4,3.4
			c-1.5,4.3-3.4,8.5-5.2,12.7c-5.3-1.4-10.3-2.7-15.3-4.2c-2-0.6-3.4-0.4-4.9,1.2c-6.2,6.4-12.7,12.6-18.9,19.1
			c-1,1.1-1.6,3.3-1.4,4.8c0.8,4.4,2.2,8.7,3.4,13c0.6,1.9,0.1,2.9-1.9,3.7c-3.4,1.2-6.6,2.9-10,4c-1,0.3-2.9-0.3-3.4-1.1
			c-2.3-3.5-4.4-7.2-6.3-11c-1.3-2.5-2.9-3.6-5.9-3.5c-6.4,0.2-12.8,0.1-20,0.1c2.9-4.9,5.4-9.4,8.1-13.7c0.3-0.6,1.5-0.8,2.3-0.9
			c22.8-0.5,44.5-18.8,48.5-42.6C329.2,312.1,329.5,311.7,329.9,310.9z"/>
		<path class="st0" d="M285.6,251.2c2.6-4.8,5-9.2,7.6-13.6c3-5.2,6.1-10.2,9.1-15.4c1-1.8,2-2.2,3.9-1.4c3.3,1.5,6.5,3.1,9.9,4.2
			c2.1,0.7,2.2,1.9,1.7,3.7c-1.1,4.1-2.2,8.1-3.4,12.2c-0.7,2.4-0.3,4.1,1.6,6c6.4,6.1,12.5,12.5,18.9,18.6c1,1,3.1,1.4,4.6,1.1
			c4.5-0.9,8.9-2.4,13.3-3.4c0.9-0.2,2.7,0.6,3.1,1.3c1.6,3.3,2.8,6.9,4.3,10.3c0.8,1.9,0.4,2.9-1.4,3.9c-3.9,2.1-7.9,4.3-11.6,6.8
			c-1.2,0.8-2.2,2.6-2.3,4c-0.2,6.7-0.1,13.4-0.1,21.2c-3.5-2-6.3-4-9.4-5.3c-4.2-1.7-5.4-4.4-5.8-8.8
			c-1.7-20.8-18.9-39.8-39.6-44.4C288.6,251.9,287.3,251.6,285.6,251.2z"/>
		<path class="st0" d="M252,219.9c2.5,4.3,5,8.3,7.2,12.5c1.5,3,3.5,4.3,7,4c5.3-0.3,10.7-0.1,16.1-0.1c0.8,0,1.6,0.1,3.1,0.3
			c-2.7,4.7-5.1,9-7.8,13.1c-0.6,0.9-2.3,1.2-3.6,1.3c-18.1,1.7-32.1,10.3-41.2,25.9c-3.2,5.5-4.9,11.8-7.5,18.2
			c-9.8-5.7-20.1-11.6-30.6-17.7c1.8-4.6,3.3-9,5.2-13.2c0.3-0.7,2.1-1.2,3-1c4.5,1,8.8,2.5,13.3,3.4c1.4,0.3,3.5-0.1,4.5-1.1
			c6.5-6.2,12.7-12.6,19.2-18.9c1.6-1.6,2.2-3,1.4-5.2c-1.3-4-2.2-8.2-3.4-12.2c-0.7-2.3-0.2-3.6,2.3-4.5
			C244.1,223.3,248,221.5,252,219.9z"/>
		<path class="st0" d="M194.6,328.7c4.6-2.6,8.9-5.3,13.4-7.7c2-1.1,2.8-2.3,2.8-4.7c-0.2-6.7-0.1-13.4-0.1-21.1
			c5.2,3,9.7,5.5,14.1,8.2c0.6,0.4,0.9,1.7,1,2.7c0.6,21.4,16.8,43.6,44,48.6c-0.4,0.9-0.6,1.8-1.1,2.6
			c-5.1,8.8-10.2,17.7-15.2,26.5c-1,1.7-1.9,2.3-3.8,1.4c-3.1-1.5-6.4-2.8-9.7-3.9c-2.2-0.8-2.8-2-2.1-4.2c1.3-4.3,2.5-8.6,3.4-13
			c0.3-1.2,0-3-0.8-3.8c-6.5-6.7-13.1-13.3-19.8-19.8c-0.9-0.9-2.9-1.3-4.2-1.1c-4.6,1-9.1,2.5-13.7,3.6c-0.9,0.2-2.6-0.4-2.9-1
			C198,337.7,196.4,333.3,194.6,328.7z"/>
		<path class="st1" d="M260.3,330.6c0-4,0-7.5,0-11.5c6.8,0,13.4-0.1,19.9,0.1c2.8,0.1,3.9-0.8,3.7-3.6c-0.1-1.2-0.1-2.5,0-3.7
			c0.2-2.4-1-2.9-3.1-3c-3.7-0.1-7.5-0.1-11.1-0.7c-5.8-1-9.7-4.6-10.6-10.5c-0.6-3.9-0.6-8-0.1-11.9c0.8-6.2,5.3-10.3,11.7-10.6
			c7.4-0.4,14.9,0,22.4,0c0.2,0,0.6-0.1,0.7,0.1c3.1,2.5,1,6,1.4,8.9c0.1,0.7-1.6,2.4-2.6,2.4c-5.6,0.2-11.2,0.2-16.8,0.1
			c-2.7-0.1-3.7,0.8-3.6,3.6c0.2,6.9-1.1,6.5,6.7,6.4c2.8,0,5.7,0.3,8.5,1c4.5,1.1,8.2,3.8,8.8,8.6c0.6,5.1,0.8,10.4,0,15.4
			c-0.7,5.2-4.8,8.5-9.9,8.8C277.8,331,269.2,330.6,260.3,330.6z"/>
	</g>
	<g>
		<g>
			<path class="st2" d="M259.6,320.5l7.1-8.5c3.3,2.7,7.5,4.5,10.9,4.5c3.7,0,5.3-1.2,5.3-3.3c0-2.2-2.4-3-6.3-4.5l-5.8-2.4
				c-5-2-9.4-6.3-9.4-13c0-8,7.2-14.5,17.4-14.5c5.3,0,11.2,2,15.6,6.3l-6.2,7.8c-3.2-2.2-5.9-3.4-9.4-3.4c-3,0-4.9,1.1-4.9,3.2
				c0,2.2,2.7,3,6.9,4.7l5.7,2.2c5.8,2.3,9.1,6.3,9.1,12.8c0,7.9-6.6,15-18.3,15C271.4,327.2,264.6,325,259.6,320.5z"/>
		</g>
	</g>
</g>
</svg>
