<svg id="Layer_1" data-name="Layer 1" xmlns="http://www.w3.org/2000/svg" width="226.32" height="226.32" viewBox="0 0 226.32 226.32">
  <defs>
    <style>
      .cls-1 {
        fill: #ed1c24;
      }

      .cls-2 {
        fill: #231f20;
      }

      .cls-3 {
        fill: #fff;
      }
    </style>
  </defs>
  <g>
    <rect class="cls-1" width="226.32" height="226.32"/>
    <g>
      <path class="cls-2" d="M359,403.84c4,2.22,7.94,4.32,11.78,6.53,5.71,3.28,11.42,6.56,17,10.06a3.91,3.91,0,0,1,1.42,3.43c-1.51,4.3-3.43,8.47-5.23,12.74-5.27-1.42-10.32-2.68-15.3-4.16a4.21,4.21,0,0,0-4.92,1.21c-6.23,6.42-12.72,12.59-18.9,19.06a6.27,6.27,0,0,0-1.36,4.82c.84,4.38,2.18,8.67,3.44,13,.57,1.94.07,2.94-1.87,3.65-3.38,1.24-6.6,2.92-10,4a3.85,3.85,0,0,1-3.45-1.13c-2.32-3.53-4.38-7.24-6.35-11a5.64,5.64,0,0,0-5.88-3.45c-6.41.25-12.84.08-20,.08,2.87-4.92,5.4-9.38,8.09-13.75a3.1,3.1,0,0,1,2.26-.87c22.85-.54,44.54-18.83,48.54-42.6A7.73,7.73,0,0,1,359,403.84Z" transform="translate(-193.51 -282.59)"/>
      <path class="cls-2" d="M314.7,344.12c2.63-4.75,5-9.22,7.57-13.62,3-5.18,6.13-10.24,9.06-15.44,1-1.78,2-2.22,3.88-1.37,3.27,1.5,6.54,3.05,9.93,4.23,2.14.75,2.25,1.95,1.75,3.71-1.15,4.06-2.21,8.14-3.4,12.18a5.26,5.26,0,0,0,1.57,6c6.38,6.1,12.48,12.49,18.88,18.57a5.92,5.92,0,0,0,4.57,1.14c4.48-.9,8.86-2.39,13.33-3.36a3.54,3.54,0,0,1,3.06,1.35c1.63,3.34,2.81,6.88,4.31,10.29.82,1.88.37,2.94-1.4,3.9-3.93,2.15-7.87,4.32-11.58,6.81a5.87,5.87,0,0,0-2.29,4c-.23,6.7-.1,13.42-.1,21.18-3.55-2-6.33-4-9.41-5.28-4.15-1.68-5.44-4.41-5.81-8.79-1.75-20.85-18.89-39.82-39.61-44.42C317.7,344.88,316.39,344.54,314.7,344.12Z" transform="translate(-193.51 -282.59)"/>
      <path class="cls-2" d="M281.12,312.82c2.5,4.31,5,8.28,7.16,12.46,1.54,3,3.46,4.26,7,4,5.33-.34,10.7-.1,16.06-.08.82,0,1.65.14,3.14.27-2.71,4.66-5.06,9-7.75,13.06-.56.86-2.33,1.19-3.58,1.3C285,345.56,271,354.17,261.87,369.8c-3.21,5.46-4.92,11.8-7.51,18.23l-30.61-17.74c1.77-4.56,3.35-9,5.24-13.23.29-.66,2.06-1.17,3-1,4.47,1,8.84,2.46,13.33,3.36a5.83,5.83,0,0,0,4.54-1.1c6.5-6.17,12.73-12.63,19.16-18.87,1.63-1.57,2.16-2.95,1.44-5.18-1.31-4-2.21-8.16-3.42-12.2-.7-2.34-.18-3.64,2.27-4.5C273.24,316.22,277.08,314.47,281.12,312.82Z" transform="translate(-193.51 -282.59)"/>
      <path class="cls-2" d="M223.73,421.7c4.59-2.64,9-5.25,13.41-7.66a4.51,4.51,0,0,0,2.78-4.65c-.16-6.68-.06-13.36-.06-21.1,5.23,3,9.72,5.54,14.08,8.24.63.4.93,1.74.95,2.66.56,21.38,16.84,43.62,44,48.56a24,24,0,0,1-1.09,2.59c-5.06,8.85-10.19,17.66-15.2,26.53-1,1.75-1.87,2.28-3.8,1.37-3.14-1.48-6.38-2.79-9.65-3.95-2.25-.79-2.8-2-2.14-4.24,1.26-4.28,2.46-8.6,3.41-13a4.83,4.83,0,0,0-.83-3.79q-9.72-10.07-19.8-19.78a5.31,5.31,0,0,0-4.17-1.06c-4.6,1-9.08,2.49-13.67,3.56-.87.2-2.58-.36-2.88-1C227.15,430.69,225.53,426.28,223.73,421.7Z" transform="translate(-193.51 -282.59)"/>
    </g>
    <path class="cls-3" d="M288.67,409.43l7.05-8.5c3.32,2.66,7.49,4.54,10.95,4.54,3.74,0,5.33-1.23,5.33-3.32s-2.38-2.95-6.34-4.53l-5.83-2.45c-5-2-9.43-6.27-9.43-13,0-8,7.2-14.55,17.42-14.55a22.49,22.49,0,0,1,15.55,6.27l-6.19,7.77c-3.17-2.23-5.9-3.38-9.36-3.38-3,0-4.9,1.08-4.9,3.17s2.67,3,6.92,4.68l5.69,2.23c5.83,2.3,9.14,6.34,9.14,12.82,0,7.92-6.63,15-18.29,15A27.13,27.13,0,0,1,288.67,409.43Z" transform="translate(-193.51 -282.59)"/>
  </g>
</svg>
