<?xml version="1.0" standalone="no"?>
<!DOCTYPE svg PUBLIC "-//W3C//DTD SVG 20010904//EN"
 "http://www.w3.org/TR/2001/REC-SVG-20010904/DTD/svg10.dtd">
<svg version="1.0" xmlns="http://www.w3.org/2000/svg"
 width="945.000000pt" height="945.000000pt" viewBox="0 0 945.000000 945.000000"
 preserveAspectRatio="xMidYMid meet">

<g transform="translate(0.000000,945.000000) scale(0.100000,-0.100000)"
fill="#000000" stroke="none">
<path d="M3055 9351 c-115 -48 -282 -116 -370 -150 -97 -37 -170 -72 -187 -88
-35 -34 -52 -84 -43 -131 10 -54 162 -612 196 -720 36 -115 37 -176 5 -241
-18 -35 -170 -192 -588 -606 -310 -307 -582 -571 -606 -586 -26 -16 -71 -32
-113 -40 -83 -15 -135 -5 -444 78 -380 102 -437 115 -487 109 -87 -9 -101 -23
-154 -148 -98 -234 -254 -652 -246 -660 5 -5 395 -233 868 -507 630 -365 861
-494 867 -485 4 7 59 152 121 321 174 472 242 617 397 853 502 765 1227 1205
2164 1315 160 19 245 39 274 66 40 37 459 744 448 755 -18 18 -213 25 -693 22
l-540 -2 -56 27 c-80 39 -142 112 -221 261 -38 71 -103 188 -146 260 -42 72
-111 188 -152 258 -40 70 -76 127 -79 127 -3 0 -99 -39 -215 -88z"/>
<path d="M6215 9406 c-42 -19 -53 -33 -141 -186 -42 -74 -147 -252 -232 -395
-278 -468 -660 -1151 -649 -1161 3 -4 102 -30 219 -59 117 -29 259 -70 316
-89 703 -248 1318 -788 1663 -1460 168 -328 245 -583 289 -956 22 -184 35
-233 81 -321 41 -77 113 -140 209 -185 166 -78 226 -110 397 -214 l178 -107 5
626 5 626 27 52 c16 29 42 68 59 87 44 50 298 207 642 396 135 75 164 109 157
190 -2 25 -197 511 -246 615 -25 52 -36 63 -83 88 -30 15 -66 27 -80 27 -24 0
-125 -26 -581 -146 -138 -37 -193 -47 -260 -48 -147 -2 -123 -21 -753 602
-303 300 -566 566 -584 590 -42 58 -60 135 -46 205 5 28 56 215 111 415 56
199 105 380 108 400 8 50 -16 106 -53 125 -15 8 -92 40 -171 71 -79 32 -221
92 -316 136 -189 86 -226 97 -271 76z"/>
<path d="M4580 6075 c-343 -58 -615 -258 -727 -535 -42 -104 -56 -192 -50
-315 13 -269 149 -490 388 -630 58 -34 313 -145 540 -235 251 -100 311 -154
294 -267 -15 -99 -118 -153 -291 -153 -168 0 -365 70 -545 194 -44 31 -84 56
-87 55 -4 0 -95 -107 -203 -237 -146 -176 -194 -240 -187 -250 6 -7 43 -36 82
-66 434 -326 1062 -399 1496 -175 337 174 510 514 446 878 -47 267 -203 447
-493 567 -48 20 -190 76 -314 125 -256 99 -313 126 -364 170 -97 86 -53 225
85 266 36 11 89 17 155 16 153 -1 272 -37 425 -129 50 -30 94 -53 98 -50 15 9
342 424 342 434 0 13 -120 110 -194 157 -133 85 -308 150 -475 179 -112 19
-313 20 -421 1z"/>
<path d="M921 4499 l3 -644 -23 -48 c-30 -61 -63 -88 -223 -176 -166 -92 -650
-371 -662 -381 -4 -5 18 -75 49 -157 86 -223 215 -543 237 -586 22 -44 81 -76
139 -77 19 0 118 23 220 50 499 136 612 162 669 156 116 -13 118 -14 727 -623
440 -440 570 -576 586 -612 42 -94 20 -222 -128 -746 -69 -246 -70 -252 -50
-303 22 -54 56 -74 238 -142 76 -28 195 -76 265 -107 233 -102 242 -105 277
-99 51 10 82 50 200 258 60 106 261 459 448 783 187 325 350 618 363 652 l24
63 -23 5 c-12 2 -78 18 -147 34 -886 208 -1623 776 -2025 1562 -184 360 -276
696 -304 1104 -13 193 -5 183 -223 312 -232 139 -597 350 -621 359 -18 7 -19
-15 -16 -637z"/>
<path d="M7683 4223 c-11 -21 -26 -67 -32 -103 -146 -790 -665 -1525 -1391
-1966 -132 -80 -369 -194 -513 -247 -233 -86 -509 -142 -808 -164 -81 -7 -125
-15 -143 -26 -26 -18 -283 -442 -483 -800 -3 -5 273 -7 614 -6 429 1 630 -2
659 -10 49 -13 113 -58 147 -103 14 -18 58 -94 98 -168 80 -150 216 -384 283
-488 49 -76 88 -102 167 -110 60 -6 98 7 387 129 128 54 243 101 257 105 13 3
40 20 60 37 54 48 55 82 5 252 -134 457 -174 631 -168 731 9 129 7 128 638
760 388 389 578 573 605 585 62 29 118 23 306 -30 246 -70 750 -203 754 -199
9 9 219 512 258 616 52 136 52 154 9 235 -28 53 -32 55 -347 245 -292 176
-678 398 -1023 589 -173 95 -315 173 -316 173 -1 0 -12 -17 -23 -37z"/>
</g>
</svg>
